<?xml version='1.0' encoding='utf-8'?>
<svg xmlns="http://www.w3.org/2000/svg" _SVGFile__filename="oldscale/devices/3floppy_mount.svg" version="1.0" viewBox="0 0 60 60"> <path d="m7.6819 4.6857c-1.1485 0-2.0731 0.9245-2.0731 2.073v46.482c0 1.149 0.9246 2.073 2.0731 2.073h44.636c1.149 0 2.073-0.924 2.073-2.073v-41.721l-6.867-6.8343h-39.842z" fill="none" stroke="#fff" stroke-linecap="round" stroke-linejoin="round" stroke-width="8.125"/> <path transform="matrix(1.0365 0 0 1.0365 -.99914 -1.5984)" d="m8.375 6.0625c-1.108 0-2 0.892-2 2v44.844c0 1.108 0.892 2 2 2h43.063c1.108 0 2-0.892 2-2v-40.25l-6.626-6.5935h-38.437z" fill="#ffe940" fill-rule="evenodd" stroke-linecap="round" stroke-linejoin="round"/> <g transform="matrix(-1 0 0 1 57.371 0)" fill-rule="evenodd" stroke-linecap="round" stroke-linejoin="round"> <path transform="matrix(.97845 0 0 .97845 .43127 .25189)" d="m15.914 4.6592v13.242c0 1.353 1.188 2.442 2.665 2.442h17.908c1.477 0 2.666-1.089 2.666-2.442v-13.242" fill="#babec3" stroke="#000" stroke-width="2.5551"/> <path transform="matrix(.97845 0 0 .97845 .43127 .25189)" d="m20.916 7.9808c-0.775 0-1.4 0.624-1.4 1.3991v6.2431c0 0.775 0.625 1.399 1.4 1.399h3.788c0.776 0 1.4-0.624 1.4-1.399v-6.2431c0-0.7751-0.624-1.3991-1.4-1.3991h-3.788z" stroke-width="1.25"/> </g> <path transform="matrix(1.0365 0 0 1.0365 -.99914 -1.5984)" d="m8.375 6.0625c-1.108 0-2 0.892-2 2v44.844c0 1.108 0.892 2 2 2h43.063c1.108 0 2-0.892 2-2v-40.25l-6.626-6.5935h-38.437z" fill="none" stroke="#000" stroke-linecap="round" stroke-linejoin="round" stroke-width="3.0148"/> <path d="m13.994 25.824c-1.028 0-1.855 0.827-1.855 1.855v20.039c0 1.028 0.827 1.855 1.855 1.855h32.012c1.028 0 1.855-0.827 1.855-1.855v-20.039c0-1.028-0.827-1.855-1.855-1.855h-32.012z" fill="#d9dddf" fill-rule="evenodd" stroke="#000" stroke-linecap="round" stroke-linejoin="round" stroke-width="2.5"/> </svg>